<svg width="7" height="5" viewBox="0 0 7 5" fill="none" xmlns="http://www.w3.org/2000/svg">
<path d="M6.47559 1.428C6.47582 1.49647 6.46071 1.56413 6.43137 1.62599C6.40202 1.68786 6.35918 1.74236 6.30601 1.7855L3.55601 3.99925C3.474 4.06666 3.37113 4.10352 3.26497 4.10352C3.1588 4.10352 3.05593 4.06666 2.97392 3.99925L0.223924 1.70758C0.130324 1.62979 0.0714631 1.51799 0.060289 1.3968C0.049115 1.2756 0.0865434 1.15493 0.16434 1.06133C0.242137 0.967734 0.35393 0.908873 0.475125 0.897699C0.596321 0.886525 0.716991 0.923953 0.81059 1.00175L3.26726 3.0505L5.72392 1.0705C5.7912 1.01445 5.87312 0.978852 5.96 0.967907C6.04688 0.956962 6.13507 0.971133 6.21415 1.00874C6.29322 1.04635 6.35987 1.10582 6.4062 1.18012C6.45253 1.25442 6.47661 1.34044 6.47559 1.428Z" fill="#C40B83"/>
</svg>
