<svg width="11" height="21" viewBox="0 0 11 21" fill="none" xmlns="http://www.w3.org/2000/svg">
<path d="M9.16877 20.7085C8.9509 20.7093 8.73563 20.6612 8.53879 20.5678C8.34194 20.4744 8.16852 20.3381 8.03127 20.169L0.987515 11.419C0.773021 11.158 0.655762 10.8307 0.655762 10.4929C0.655762 10.1551 0.773021 9.82781 0.987515 9.56687L8.27918 0.816866C8.52672 0.519049 8.88242 0.331764 9.26804 0.29621C9.65366 0.260656 10.0376 0.379747 10.3354 0.627282C10.6332 0.874817 10.8205 1.23052 10.8561 1.61614C10.8916 2.00177 10.7726 2.38572 10.525 2.68353L4.00626 10.5002L10.3063 18.3169C10.4846 18.5309 10.5979 18.7916 10.6327 19.068C10.6675 19.3444 10.6224 19.6251 10.5028 19.8767C10.3831 20.1283 10.1939 20.3403 9.95746 20.4878C9.72105 20.6352 9.44736 20.7118 9.16877 20.7085Z" fill="#C40B83"/>
</svg>
